<svg id="Layer_1" data-name="Layer 1" xmlns="http://www.w3.org/2000/svg" viewBox="0 0 500 500"><defs><style>.cls-1{fill:#f4ad0a;}.cls-2{font-size:390px;fill:#4b00a2;font-family:ArialRoundedMTBold, Arial Rounded MT Bold;}</style></defs><title>pro</title><path class="cls-1" d="M250,499.5A249.5,249.5,0,0,1,73.58,73.58,249.5,249.5,0,1,1,426.42,426.42,247.84,247.84,0,0,1,250,499.5Z"/><path d="M250,1A248.93,248.93,0,0,1,426.07,426.07a249,249,0,1,1-273-405.5A247.32,247.32,0,0,1,250,1m0-1C111.93,0,0,111.93,0,250S111.93,500,250,500,500,388.07,500,250,388.07,0,250,0Z"/><text class="cls-2" transform="translate(115.88 383.22)">P</text></svg>